<svg data-v-423bf9ae="" xmlns="http://www.w3.org/2000/svg" viewBox="0 0 572 90" class="iconLeft"><!----><!----><!----><g data-v-423bf9ae="" id="2cbe98af-927c-4ad5-893a-bff90fb8281f" fill="white" transform="matrix(5.888125304749934,0,0,5.888125304749934,122.86406912428129,-7.257113245075558)"><path d="M4.24 3.78C2.34 3.78 0.84 4.87 0.84 6.62C0.84 8.40 1.97 9.09 4.07 9.55L4.20 9.58C5.49 9.86 6.22 10.12 6.22 10.98C6.22 11.69 5.66 12.32 4.47 12.32C2.98 12.32 2.30 11.51 2.30 10.30L2.30 10.08L0.48 10.08L0.48 10.39C0.48 12.68 2.02 13.97 4.41 13.97C6.50 13.97 8.04 12.87 8.04 10.89C8.04 9.11 6.85 8.40 4.83 7.95L4.70 7.92C3.53 7.66 2.66 7.49 2.66 6.58C2.66 5.92 3.26 5.43 4.24 5.43C5.36 5.43 6.08 5.92 6.08 7.03L6.08 7.31L7.87 7.31L7.87 6.89C7.87 4.93 6.34 3.78 4.24 3.78ZM9.46 6.83L9.46 13.78L11.23 13.78L11.23 9.55C11.23 8.68 11.76 8.26 12.49 8.26C13.16 8.26 13.62 8.62 13.62 9.27L13.62 13.78L15.39 13.78L15.39 9.55C15.39 8.68 15.92 8.26 16.65 8.26C17.32 8.26 17.78 8.62 17.78 9.27L17.78 13.78L19.54 13.78L19.54 9.13C19.54 7.69 18.52 6.72 17.25 6.72C16.14 6.72 15.58 7.25 15.27 7.90L15.08 7.90C14.78 7.20 14.13 6.72 13.23 6.72C12.26 6.72 11.69 7.20 11.40 7.87L11.20 7.87L11.20 6.83ZM20.80 8.43L22.23 9.35C22.67 8.62 23.24 8.15 24.16 8.15C25.12 8.15 25.62 8.67 25.62 9.32L25.62 9.49L22.83 9.80C21.55 9.94 20.66 10.70 20.66 11.80C20.66 13.13 21.70 13.97 23.27 13.97C24.77 13.97 25.28 13.24 25.45 12.94L25.65 12.94L25.65 13.78L27.38 13.78L27.38 9.34C27.38 7.71 26.15 6.64 24.26 6.64C22.57 6.64 21.63 7.39 20.80 8.43ZM22.51 11.70C22.51 11.30 22.83 11.06 23.49 10.98L25.62 10.72L25.62 10.84C25.62 11.79 24.93 12.52 23.70 12.52C22.92 12.52 22.51 12.18 22.51 11.70ZM30.74 3.98L28.98 3.98L28.98 13.78L30.74 13.78ZM34.19 3.98L32.42 3.98L32.42 13.78L34.19 13.78ZM39.03 3.98L40.56 13.78L43.60 13.78L45.07 5.77L45.26 5.77L46.73 13.78L49.77 13.78L51.30 3.98L49.45 3.98L48.29 11.98L48.09 11.98L46.62 3.98L43.71 3.98L42.24 11.98L42.04 11.98L40.88 3.98ZM51.94 10.30C51.94 12.49 53.54 13.97 55.58 13.97C57.62 13.97 59.22 12.49 59.22 10.30C59.22 8.12 57.62 6.64 55.58 6.64C53.54 6.64 51.94 8.12 51.94 10.30ZM53.70 10.30C53.70 9.07 54.46 8.26 55.58 8.26C56.70 8.26 57.46 9.07 57.46 10.30C57.46 11.54 56.70 12.35 55.58 12.35C54.46 12.35 53.70 11.54 53.70 10.30ZM62.22 6.83L60.48 6.83L60.48 13.78L62.24 13.78L62.24 9.88C62.24 8.90 62.89 8.43 63.78 8.43L64.82 8.43L64.82 6.80L64.12 6.80C63.24 6.80 62.65 7.07 62.38 7.84L62.22 7.84ZM67.62 3.98L65.86 3.98L65.86 13.78L67.62 13.78ZM76.22 3.98L74.45 3.98L74.45 7.81L74.28 7.81C73.92 7.22 73.30 6.64 72.07 6.64C70.34 6.64 68.88 8.18 68.88 10.30C68.88 12.43 70.34 13.97 72.07 13.97C73.30 13.97 73.92 13.38 74.28 12.80L74.48 12.80L74.48 13.78L76.22 13.78ZM72.55 8.20C73.64 8.20 74.45 8.99 74.45 10.30C74.45 11.62 73.64 12.40 72.55 12.40C71.48 12.40 70.64 11.65 70.64 10.30C70.64 8.96 71.48 8.20 72.55 8.20Z"></path></g><!----><g data-v-423bf9ae="" id="c4c2abc6-770d-4fd8-8b9b-6762d1b48d74" transform="matrix(1.176455100856276,0,0,1.176455100856276,-5.741758080614879,-13.073346930219145)" stroke="none" fill="white"><circle cx="31.626" cy="23.25" r="11.5"></circle><path d="M94.919 29.487l-5.521-5.115L73.343 38.25h-8.701L50.285 23.533 35.857 38.25h-8.65L11.232 24.248l-6.151 6.319L18.64 51.218l1.028 37.033h10.459v-16a1.5 1.5 0 0 1 3 0v16h10.459l1.03-37.268 5.697-10.192 6.271 10.896L50.11 73.25h8.343v15h8.674v-16a1.5 1.5 0 0 1 3 0v16h8.938v-15h8.05l-6.067-21.275 13.871-22.488zM31.554 59.392a1.5 1.5 0 1 1 .001-3.001 1.5 1.5 0 0 1-.001 3.001zm0-7a1.5 1.5 0 1 1 .001-3.001 1.5 1.5 0 0 1-.001 3.001zm37 7a1.5 1.5 0 1 1 .001-3.001 1.5 1.5 0 0 1-.001 3.001zm0-7a1.5 1.5 0 1 1 .001-3.001 1.5 1.5 0 0 1-.001 3.001z"></path><path d="M89.714 20.173s-1.703-4.565-6.084-6.118a9.055 9.055 0 0 0-3.055-.512c-1.909 0-3.564.546-4.553.964a11.448 11.448 0 0 0-7.459-2.757c-2.83 0-5.416 1.026-7.42 2.722-.997-.413-2.61-.929-4.466-.929-.972 0-2.007.141-3.054.512-4.383 1.553-6.084 6.118-6.084 6.118-.192.515.038 1.166.512 1.444 0 0 2.43 1.433 5.523 1.433a9.11 9.11 0 0 0 3.055-.513c.166-.059.321-.129.479-.197-.023.301-.046.603-.046.909 0 6.353 5.148 11.5 11.5 11.5s11.5-5.147 11.5-11.5c0-.324-.022-.644-.049-.962.198.088.396.175.607.25a9.11 9.11 0 0 0 3.055.513c3.094 0 5.525-1.433 5.525-1.433.476-.279.707-.929.514-1.444z"></path></g><!----></svg>